M48
; DRILL file {KiCad 9.0.0} date 2026-04-02T13:53:51-0400
; FORMAT={-:-/ absolute / metric / decimal}
; #@! TF.CreationDate,2026-04-02T13:53:51-04:00
; #@! TF.GenerationSoftware,Kicad,Pcbnew,9.0.0
; #@! TF.FileFunction,Plated,1,2,PTH
FMAT,2
METRIC
; #@! TA.AperFunction,Plated,PTH,ComponentDrill
T1C0.700
; #@! TA.AperFunction,Plated,PTH,ComponentDrill
T2C0.800
; #@! TA.AperFunction,Plated,PTH,ComponentDrill
T3C0.900
; #@! TA.AperFunction,Plated,PTH,ComponentDrill
T4C1.000
; #@! TA.AperFunction,Plated,PTH,ComponentDrill
T5C1.020
%
G90
G05
T1
X131.68Y-115.0
X133.18Y-119.25
X133.5Y-110.0
X134.22Y-115.0
X134.68Y-134.5
X135.72Y-119.25
X136.04Y-110.0
X137.22Y-134.5
T2
X126.25Y-106.75
X126.25Y-114.25
X135.5Y-123.25
X135.5Y-130.75
T3
X120.5Y-131.75
X120.5Y-134.29
X129.0Y-131.735
X129.0Y-134.275
T4
X119.5Y-121.975
X119.5Y-124.515
X126.5Y-119.42
X126.5Y-121.96
X126.5Y-124.5
X130.5Y-106.75
X133.04Y-106.75
X156.5Y-136.0
X156.5Y-140.5
X160.71Y-112.875
X160.71Y-115.415
X160.71Y-117.955
X160.71Y-120.495
X163.0Y-136.0
X163.0Y-140.5
X163.25Y-112.875
X163.25Y-115.415
X163.25Y-117.955
X163.25Y-120.495
T5
X139.743Y-110.84
X139.743Y-113.38
X139.743Y-115.92
X139.743Y-118.46
X139.743Y-121.0
X139.743Y-123.54
X139.743Y-126.08
X154.982Y-110.84
X154.982Y-113.38
X154.982Y-115.92
X154.982Y-118.46
X154.982Y-121.0
X154.982Y-123.54
X154.982Y-126.08
M30
