%TF.GenerationSoftware,KiCad,Pcbnew,9.0.0*%
%TF.CreationDate,2026-04-02T13:55:12-04:00*%
%TF.ProjectId,TransmitterModule,5472616e-736d-4697-9474-65724d6f6475,rev?*%
%TF.SameCoordinates,Original*%
%TF.FileFunction,Soldermask,Bot*%
%TF.FilePolarity,Negative*%
%FSLAX46Y46*%
G04 Gerber Fmt 4.6, Leading zero omitted, Abs format (unit mm)*
G04 Created by KiCad (PCBNEW 9.0.0) date 2026-04-02 13:55:12*
%MOMM*%
%LPD*%
G01*
G04 APERTURE LIST*
G04 Aperture macros list*
%AMRoundRect*
0 Rectangle with rounded corners*
0 $1 Rounding radius*
0 $2 $3 $4 $5 $6 $7 $8 $9 X,Y pos of 4 corners*
0 Add a 4 corners polygon primitive as box body*
4,1,4,$2,$3,$4,$5,$6,$7,$8,$9,$2,$3,0*
0 Add four circle primitives for the rounded corners*
1,1,$1+$1,$2,$3*
1,1,$1+$1,$4,$5*
1,1,$1+$1,$6,$7*
1,1,$1+$1,$8,$9*
0 Add four rect primitives between the rounded corners*
20,1,$1+$1,$2,$3,$4,$5,0*
20,1,$1+$1,$4,$5,$6,$7,0*
20,1,$1+$1,$6,$7,$8,$9,0*
20,1,$1+$1,$8,$9,$2,$3,0*%
G04 Aperture macros list end*
%ADD10C,1.400000*%
%ADD11C,1.700000*%
%ADD12R,1.700000X1.700000*%
%ADD13C,1.508000*%
%ADD14R,1.508000X1.508000*%
%ADD15C,3.200000*%
%ADD16C,1.600000*%
%ADD17R,1.530000X1.530000*%
%ADD18C,1.530000*%
%ADD19R,1.800000X1.800000*%
%ADD20C,1.800000*%
%ADD21RoundRect,0.250000X0.750000X0.750000X-0.750000X0.750000X-0.750000X-0.750000X0.750000X-0.750000X0*%
%ADD22C,2.000000*%
G04 APERTURE END LIST*
D10*
%TO.C,R3*%
X136040000Y-110000000D03*
X133500000Y-110000000D03*
%TD*%
%TO.C,R1*%
X134680000Y-134500000D03*
X137220000Y-134500000D03*
%TD*%
D11*
%TO.C,U2*%
X163250500Y-120495000D03*
X160710500Y-120495000D03*
X163250500Y-117955000D03*
X160710500Y-117955000D03*
X163250500Y-115415000D03*
X160710500Y-115415000D03*
X163250500Y-112875000D03*
D12*
X160710500Y-112875000D03*
%TD*%
D13*
%TO.C,S1*%
X156500000Y-136000000D03*
X163000000Y-136000000D03*
X156500000Y-140500000D03*
D14*
X163000000Y-140500000D03*
%TD*%
D15*
%TO.C,H4*%
X119000000Y-142000000D03*
%TD*%
D16*
%TO.C,C4*%
X126250000Y-106750000D03*
X126250000Y-114250000D03*
%TD*%
%TO.C,C5*%
X135500000Y-130750000D03*
X135500000Y-123250000D03*
%TD*%
D10*
%TO.C,R4*%
X135720000Y-119250000D03*
X133180000Y-119250000D03*
%TD*%
D17*
%TO.C,U3*%
X139742500Y-110840000D03*
D18*
X139742500Y-113380000D03*
X139742500Y-115920000D03*
X139742500Y-118460000D03*
X139742500Y-121000000D03*
X139742500Y-123540000D03*
X139742500Y-126080000D03*
X154982500Y-126080000D03*
X154982500Y-123540000D03*
X154982500Y-121000000D03*
X154982500Y-118460000D03*
X154982500Y-115920000D03*
X154982500Y-113380000D03*
X154982500Y-110840000D03*
%TD*%
D10*
%TO.C,R2*%
X134220000Y-115000000D03*
X131680000Y-115000000D03*
%TD*%
D19*
%TO.C,D1*%
X129000000Y-134275000D03*
D20*
X129000000Y-131735000D03*
%TD*%
D15*
%TO.C,H3*%
X119000000Y-107400000D03*
%TD*%
D21*
%TO.C,D3*%
X133040000Y-106750000D03*
D22*
X130500000Y-106750000D03*
%TD*%
D19*
%TO.C,D2*%
X120500000Y-134290000D03*
D20*
X120500000Y-131750000D03*
%TD*%
D12*
%TO.C,J3*%
X119500000Y-121975000D03*
D11*
X119500000Y-124515000D03*
%TD*%
D15*
%TO.C,H2*%
X195500000Y-141000000D03*
%TD*%
%TO.C,H1*%
X195500000Y-107600000D03*
%TD*%
D14*
%TO.C,S3*%
X126500000Y-119420000D03*
D13*
X126500000Y-121960000D03*
X126500000Y-124500000D03*
%TD*%
M02*
